<svg width="24" height="24" viewBox="0 0 24 24" fill="none" xmlns="http://www.w3.org/2000/svg">
<path fill-rule="evenodd" clip-rule="evenodd" d="M14.3851 15.4461C13.0371 16.5232 11.3278 17.0432 9.60827 16.8994C7.88877 16.7556 6.28961 15.9588 5.13922 14.6728C3.98883 13.3867 3.37455 11.709 3.42254 9.98415C3.47052 8.25932 4.17713 6.61834 5.39725 5.39822C6.61736 4.17811 8.25835 3.4715 9.98318 3.42351C11.708 3.37553 13.3857 3.98981 14.6718 5.1402C15.9579 6.29058 16.7546 7.88975 16.8984 9.60924C17.0422 11.3287 16.5222 13.038 15.4451 14.3861L20.6011 19.5411C20.6748 19.6097 20.7339 19.6925 20.7749 19.7845C20.8159 19.8765 20.8379 19.9758 20.8397 20.0765C20.8415 20.1772 20.8229 20.2773 20.7852 20.3707C20.7475 20.4641 20.6913 20.5489 20.6201 20.6201C20.5489 20.6913 20.4641 20.7475 20.3707 20.7852C20.2773 20.8229 20.1773 20.8414 20.0766 20.8397C19.9759 20.8379 19.8766 20.8158 19.7846 20.7748C19.6926 20.7339 19.6098 20.6748 19.5411 20.6011L14.3851 15.4461ZM6.46009 13.8841C5.72613 13.15 5.22624 12.2149 5.0236 11.1968C4.82096 10.1788 4.92466 9.1235 5.3216 8.16437C5.71854 7.20523 6.3909 6.38529 7.2537 5.80817C8.11651 5.23105 9.13103 4.92265 10.1691 4.92195C11.2071 4.92125 12.222 5.22828 13.0856 5.80424C13.9492 6.3802 14.6226 7.19924 15.0209 8.15784C15.4191 9.11644 15.5242 10.1716 15.323 11.1899C15.1217 12.2082 14.6231 13.144 13.8901 13.8791L13.8851 13.8841L13.8801 13.8881C12.8952 14.8707 11.5605 15.4222 10.1693 15.4214C8.77801 15.4207 7.44394 14.8677 6.46009 13.8841Z" fill="#666666"/>
</svg>
